<?xml version="1.0" standalone="no"?>
<!DOCTYPE svg PUBLIC "-//W3C//DTD SVG 20010904//EN"
 "http://www.w3.org/TR/2001/REC-SVG-20010904/DTD/svg10.dtd">
<svg version="1.0" xmlns="http://www.w3.org/2000/svg"
 width="390.000000pt" height="390.000000pt" viewBox="0 0 390.000000 390.000000"
 preserveAspectRatio="xMidYMid meet">
<metadata>
Created by potrace 1.11, written by Peter Selinger 2001-2013
</metadata>
<g transform="translate(0.000000,390.000000) scale(0.100000,-0.100000)"
fill="#000000" stroke="none">
<path d="M1105 3892 c-125 -27 -227 -148 -229 -272 -2 -106 23 -168 95 -237
110 -105 299 -101 408 9 69 69 104 198 77 288 -24 84 -102 170 -181 200 -32
12 -136 20 -170 12z"/>
<path d="M1665 3866 c-93 -44 -146 -126 -148 -228 -4 -282 382 -364 493 -105
26 61 24 150 -5 212 -57 124 -215 180 -340 121z"/>
<path d="M2174 3681 c-200 -109 -122 -414 106 -414 170 0 272 172 192 324 -57
110 -189 150 -298 90z"/>
<path d="M2583 3379 c-107 -22 -157 -150 -94 -238 69 -96 222 -81 267 28 19
46 18 85 -6 131 -32 63 -98 94 -167 79z"/>
<path d="M1500 3275 c-8 -2 -50 -9 -92 -16 -43 -6 -78 -15 -78 -18 0 -3 20 -7
44 -8 123 -3 287 -37 417 -88 424 -164 732 -507 853 -952 27 -103 22 -129 -7
-30 -144 494 -573 875 -1093 972 -66 12 -156 18 -258 18 -126 1 -126 0 -170
-113 -44 -114 -59 -189 -60 -305 -1 -123 5 -176 30 -260 100 -344 386 -584
754 -631 73 -9 199 -41 280 -70 336 -120 559 -351 618 -639 20 -97 17 -97 83
5 53 81 114 213 148 318 89 274 86 606 -6 872 -117 338 -365 628 -672 788
-206 107 -380 152 -616 157 -88 2 -167 2 -175 0z m1172 -1210 c3 -13 1 -22 -3
-19 -9 5 -13 44 -5 44 2 0 6 -11 8 -25z"/>
<path d="M2783 3078 c-49 -13 -70 -53 -64 -121 2 -34 50 -67 97 -67 35 0 47 5
69 32 23 27 26 39 22 76 -7 63 -60 97 -124 80z"/>
<path d="M1948 1524 c89 -100 110 -244 55 -364 -36 -76 -89 -130 -188 -188
-175 -103 -265 -256 -266 -455 0 -40 2 -81 5 -92 3 -11 9 -36 14 -55 42 -167
215 -330 384 -360 156 -29 373 33 485 138 159 149 247 456 201 700 -15 80 -16
86 -36 142 -104 297 -343 503 -666 575 l-29 6 41 -47z m542 -1104 c12 -23 -9
-83 -51 -145 -98 -144 -211 -141 -138 3 60 121 160 196 189 142z"/>
</g>
</svg>
